<svg width="141" height="33" viewBox="0 0 141 33" fill="none" xmlns="http://www.w3.org/2000/svg">
<path d="M131.821 23.2849H126.821C126.291 23.2849 125.782 23.0742 125.407 22.6991C125.032 22.3241 124.821 21.8153 124.821 21.2849V15.2849C124.821 14.7545 125.032 14.2458 125.407 13.8707C125.782 13.4956 126.291 13.2849 126.821 13.2849H131.821V15.2849H126.821V21.2849H131.821V23.2849Z" fill="#C0D6FF"/>
<path d="M110.821 9.28491V13.2849H106.821C106.291 13.2849 105.782 13.4956 105.407 13.8707C105.032 14.2458 104.821 14.7545 104.821 15.2849V21.2849C104.821 21.8153 105.032 22.3241 105.407 22.6991C105.782 23.0742 106.291 23.2849 106.821 23.2849H112.821V9.28491H110.821ZM106.821 15.2849H110.821V21.2849H106.821V15.2849Z" fill="#C0D6FF"/>
<path d="M120.821 23.2849H116.821C116.291 23.2849 115.782 23.0742 115.407 22.6991C115.032 22.3241 114.821 21.8153 114.821 21.2849V15.2849C114.821 14.7545 115.032 14.2458 115.407 13.8707C115.782 13.4956 116.291 13.2849 116.821 13.2849H120.821C121.351 13.2849 121.86 13.4956 122.235 13.8707C122.61 14.2458 122.821 14.7545 122.821 15.2849V21.2849C122.821 21.8153 122.61 22.3241 122.235 22.6991C121.86 23.0742 121.351 23.2849 120.821 23.2849ZM116.821 15.2849V21.2849H120.821V15.2849H116.821Z" fill="#C0D6FF"/>
<path d="M138.821 23.2849H133.821V21.2849H138.821V19.2849H135.821C135.291 19.2849 134.782 19.0742 134.407 18.6991C134.032 18.3241 133.821 17.8153 133.821 17.2849V15.2849C133.821 14.7545 134.032 14.2458 134.407 13.8707C134.782 13.4956 135.291 13.2849 135.821 13.2849H140.821V15.2849H135.821V17.2849H138.821C139.351 17.2849 139.86 17.4956 140.235 17.8707C140.61 18.2458 140.821 18.7545 140.821 19.2849V21.2849C140.821 21.8153 140.61 22.3241 140.235 22.6991C139.86 23.0742 139.351 23.2849 138.821 23.2849Z" fill="#C0D6FF"/>
<path fill-rule="evenodd" clip-rule="evenodd" d="M0.568952 7.46522C0.53296 7.53586 0.532959 7.62833 0.532959 7.81328V24.5381C0.532959 24.723 0.53296 24.8155 0.568952 24.8861C0.600612 24.9483 0.65113 24.9988 0.713267 25.0304C0.783906 25.0664 0.876379 25.0664 1.06132 25.0664H2.29079C2.47573 25.0664 2.56821 25.0664 2.63885 25.0304C2.70098 24.9988 2.7515 24.9483 2.78316 24.8861C2.81915 24.8155 2.81915 24.723 2.81915 24.5381V23.9477C3.86288 24.7844 5.18773 25.2848 6.62948 25.2848C9.99649 25.2848 12.726 22.5553 12.726 19.1883C12.726 15.8213 9.99649 13.0918 6.62948 13.0918C5.18773 13.0918 3.86288 13.5923 2.81915 14.429V7.81328C2.81915 7.62833 2.81915 7.53586 2.78316 7.46522C2.7515 7.40308 2.70098 7.35256 2.63885 7.3209C2.56821 7.28491 2.47573 7.28491 2.29079 7.28491H1.06132C0.876379 7.28491 0.783906 7.28491 0.713267 7.3209C0.65113 7.35256 0.600612 7.40308 0.568952 7.46522ZM2.81915 19.1883C2.81915 21.2927 4.52509 22.9987 6.62948 22.9987C8.73386 22.9987 10.4398 21.2927 10.4398 19.1883C10.4398 17.0839 8.73386 15.378 6.62948 15.378C4.52509 15.378 2.81915 17.0839 2.81915 19.1883Z" fill="#F25C2B"/>
<path d="M60.3129 13.6075C60.2769 13.6781 60.2769 13.7706 60.2769 13.9556V19.6964C60.2714 20.079 60.19 20.4571 60.038 20.8108C59.8804 21.1774 59.6494 21.5105 59.3582 21.7912C59.276 21.8704 59.1894 21.945 59.0989 22.0147C58.8561 22.2326 58.5803 22.4088 58.282 22.5361C57.9202 22.6906 57.5324 22.7701 57.1407 22.7701C56.7491 22.7701 56.3613 22.6906 55.9994 22.5361C55.7007 22.4086 55.4246 22.2321 55.1815 22.0138C55.0914 21.9443 55.0053 21.87 54.9234 21.7912C54.6322 21.5105 54.4012 21.1774 54.2436 20.8108C54.0916 20.4571 54.0108 20.079 54.0052 19.6964H54.0045V13.9558C54.0045 13.7709 54.0045 13.6784 53.9685 13.6078C53.9369 13.5456 53.8863 13.4951 53.8242 13.4634C53.7536 13.4274 53.6611 13.4274 53.4762 13.4274H52.2467C52.0617 13.4274 51.9693 13.4274 51.8986 13.4634C51.8365 13.4951 51.786 13.5456 51.7543 13.6078C51.7183 13.6784 51.7183 13.7709 51.7183 13.9558V19.6964C51.7183 20.4303 51.8586 21.157 52.1311 21.8351C52.151 21.8846 52.1716 21.9338 52.1928 21.9826C52.4625 22.6026 52.8398 23.1671 53.3065 23.6481C53.81 24.167 54.4078 24.5787 55.0657 24.8595C55.7235 25.1404 56.4287 25.2849 57.1407 25.2849C57.8528 25.2849 58.5579 25.1404 59.2158 24.8595C59.8737 24.5787 60.4714 24.167 60.975 23.6481C61.4417 23.1671 61.819 22.6026 62.0887 21.9826C62.1099 21.9338 62.1305 21.8846 62.1504 21.8351C62.4229 21.157 62.5631 20.4303 62.5631 19.6965V13.9556C62.5631 13.7706 62.5631 13.6781 62.5272 13.6075C62.4955 13.5454 62.445 13.4949 62.3828 13.4632C62.3122 13.4272 62.2197 13.4272 62.0348 13.4272H60.8053C60.6204 13.4272 60.5279 13.4272 60.4573 13.4632C60.3951 13.4949 60.3446 13.5454 60.3129 13.6075Z" fill="#F25C2B"/>
<path d="M14.6312 7.81328C14.6312 7.62833 14.6312 7.53586 14.6672 7.46522C14.6988 7.40308 14.7493 7.35256 14.8115 7.3209C14.8821 7.28491 14.9746 7.28491 15.1595 7.28491H16.389C16.5739 7.28491 16.6664 7.28491 16.737 7.3209C16.7992 7.35256 16.8497 7.40308 16.8814 7.46522C16.9174 7.53586 16.9174 7.62833 16.9174 7.81328V24.5381C16.9174 24.723 16.9174 24.8155 16.8814 24.8861C16.8497 24.9483 16.7992 24.9988 16.737 25.0304C16.6664 25.0664 16.5739 25.0664 16.389 25.0664H15.1595C14.9746 25.0664 14.8821 25.0664 14.8115 25.0304C14.7493 24.9988 14.6988 24.9483 14.6672 24.8861C14.6312 24.8155 14.6312 24.723 14.6312 24.5381V7.81328Z" fill="#F25C2B"/>
<path d="M33.2107 7.46522C33.1747 7.53586 33.1747 7.62833 33.1747 7.81328V9.95115H31.0359C30.8509 9.95115 30.7585 9.95115 30.6878 9.98714C30.6257 10.0188 30.5752 10.0693 30.5435 10.1315C30.5075 10.2021 30.5075 10.2946 30.5075 10.4795V11.709C30.5075 11.8939 30.5075 11.9864 30.5435 12.057C30.5752 12.1192 30.6257 12.1697 30.6878 12.2013C30.7585 12.2373 30.8509 12.2373 31.0359 12.2373H33.1747V24.5381C33.1747 24.723 33.1747 24.8155 33.2107 24.8861C33.2424 24.9483 33.2929 24.9988 33.355 25.0304C33.4257 25.0664 33.5182 25.0664 33.7031 25.0664H34.9326C35.1175 25.0664 35.21 25.0664 35.2806 25.0304C35.3428 24.9988 35.3933 24.9483 35.4249 24.8861C35.4609 24.8155 35.4609 24.723 35.4609 24.5381V12.2373H37.5998C37.7847 12.2373 37.8772 12.2373 37.9479 12.2013C38.01 12.1697 38.0605 12.1192 38.0922 12.057C38.1282 11.9864 38.1282 11.8939 38.1282 11.709V10.4795C38.1282 10.2946 38.1282 10.2021 38.0922 10.1315C38.0605 10.0693 38.01 10.0188 37.9479 9.98714C37.8772 9.95115 37.7847 9.95115 37.5998 9.95115H35.4609V7.81328C35.4609 7.62833 35.4609 7.53586 35.4249 7.46522C35.3933 7.40308 35.3428 7.35256 35.2806 7.3209C35.21 7.28491 35.1175 7.28491 34.9326 7.28491H33.7031C33.5182 7.28491 33.4257 7.28491 33.355 7.3209C33.2929 7.35256 33.2424 7.40308 33.2107 7.46522Z" fill="#F25C2B"/>
<path fill-rule="evenodd" clip-rule="evenodd" d="M24.919 22.9987C27.0234 22.9987 28.7294 21.2927 28.7294 19.1883C28.7294 17.0839 27.0234 15.378 24.919 15.378C22.8147 15.378 21.1087 17.0839 21.1087 19.1883C21.1087 21.2927 22.8147 22.9987 24.919 22.9987ZM24.919 25.2848C28.2861 25.2848 31.0156 22.5553 31.0156 19.1883C31.0156 15.8213 28.2861 13.0918 24.919 13.0918C21.552 13.0918 18.8225 15.8213 18.8225 19.1883C18.8225 22.5553 21.552 25.2848 24.919 25.2848Z" fill="#F25C2B"/>
<path d="M65.9033 7.46522C65.8673 7.53586 65.8673 7.62833 65.8673 7.81328V9.95115H63.7285C63.5435 9.95115 63.4511 9.95115 63.3804 9.98714C63.3183 10.0188 63.2678 10.0693 63.2361 10.1315C63.2001 10.2021 63.2001 10.2946 63.2001 10.4795V11.709C63.2001 11.8939 63.2001 11.9864 63.2361 12.057C63.2678 12.1192 63.3183 12.1697 63.3804 12.2013C63.4511 12.2373 63.5435 12.2373 63.7285 12.2373H65.8673V24.5381C65.8673 24.723 65.8673 24.8155 65.9033 24.8861C65.935 24.9483 65.9855 24.9988 66.0476 25.0304C66.1183 25.0664 66.2108 25.0664 66.3957 25.0664H67.6252C67.8101 25.0664 67.9026 25.0664 67.9732 25.0304C68.0354 24.9988 68.0859 24.9483 68.1175 24.8861C68.1535 24.8155 68.1535 24.723 68.1535 24.5381V12.2373H70.2924C70.4773 12.2373 70.5698 12.2373 70.6404 12.2013C70.7026 12.1697 70.7531 12.1192 70.7848 12.057C70.8208 11.9864 70.8208 11.8939 70.8208 11.709V10.4795C70.8208 10.2946 70.8208 10.2021 70.7848 10.1315C70.7531 10.0693 70.7026 10.0188 70.6404 9.98714C70.5698 9.95115 70.4773 9.95115 70.2924 9.95115H68.1535V7.81328C68.1535 7.62833 68.1535 7.53586 68.1175 7.46522C68.0859 7.40308 68.0354 7.35256 67.9732 7.3209C67.9026 7.28491 67.8101 7.28491 67.6252 7.28491H66.3957C66.2108 7.28491 66.1183 7.28491 66.0476 7.3209C65.9855 7.35256 65.935 7.40308 65.9033 7.46522Z" fill="#F25C2B"/>
<path fill-rule="evenodd" clip-rule="evenodd" d="M43.7166 22.9987C45.821 22.9987 47.527 21.2927 47.527 19.1883C47.527 17.0839 45.821 15.378 43.7166 15.378C41.6123 15.378 39.9063 17.0839 39.9063 19.1883C39.9063 21.2927 41.6123 22.9987 43.7166 22.9987ZM43.7166 25.2848C47.0837 25.2848 49.8132 22.5553 49.8132 19.1883C49.8132 15.8213 47.0837 13.0918 43.7166 13.0918C40.3496 13.0918 37.6201 15.8213 37.6201 19.1883C37.6201 22.5553 40.3496 25.2848 43.7166 25.2848Z" fill="#F25C2B"/>
<rect x="86.8208" y="0.284912" width="2" height="32" rx="1" fill="#BFCCDA"/>
</svg>
