<?xml version="1.0" encoding="utf-8"?>
<!-- Generator: Adobe Illustrator 25.0.1, SVG Export Plug-In . SVG Version: 6.00 Build 0)  -->
<svg version="1.1" id="Layer_1" xmlns="http://www.w3.org/2000/svg" xmlns:xlink="http://www.w3.org/1999/xlink" x="0px" y="0px"
	 viewBox="0 0 181 61.3" style="enable-background:new 0 0 181 61.3;" xml:space="preserve">
<style type="text/css">
	.st0{fill:#FFFFFF;}
	.st1{clip-path:url(#SVGID_2_);}
	.st2{clip-path:url(#SVGID_4_);}
	.st3{fill:url(#Subtraction_3-2_1_);}
</style>
<g id="Layer_1-2">
	<path class="st0" d="M3.7,51.9H0.1v-0.7H8v0.7H4.4v9.3H3.7V51.9z"/>
	<path class="st0" d="M23.7,51.2v10h-0.7v-4.8h-6.7v4.7h-0.7v-10h0.7v4.6h6.7v-4.6H23.7z"/>
	<path class="st0" d="M32.9,51.2h0.7v10h-0.7V51.2z"/>
	<path class="st0" d="M51,51.2v10h-0.6l-6.8-8.7v8.6h-0.7v-10h0.6l6.8,8.7v-8.6H51z"/>
	<path class="st0" d="M63.3,56.3L61,58.6v2.6h-0.7v-10H61v6.4l6.2-6.4h0.9l-4.4,4.5l4.7,5.4h-0.9L63.3,56.3z"/>
	<path class="st0" d="M93.2,54.6c0,2.1-1.5,3.3-4,3.3h-2.9v3.3h-0.7v-10h3.6C91.6,51.2,93.2,52.5,93.2,54.6z M92.4,54.6
		c0-1.7-1.1-2.7-3.3-2.7h-2.9v5.4h2.8C91.3,57.3,92.4,56.3,92.4,54.6z"/>
	<path class="st0" d="M108.3,61.2l-2.4-3.3c-0.3,0-0.7,0.1-1,0.1h-2.8v3.3h-0.7v-10h3.6c2.5,0,4,1.2,4,3.4c0.1,1.5-0.9,2.8-2.3,3.1
		l2.5,3.5L108.3,61.2z M105,57.3c2.1,0,3.3-1,3.3-2.7s-1.1-2.7-3.3-2.7h-2.8v5.4H105z"/>
	<path class="st0" d="M117.4,51.2h0.7v10h-0.7V51.2z"/>
	<path class="st0" d="M135.3,51.2l-4.4,10h-0.7l-4.4-10h0.8l4,9l4-9H135.3z"/>
	<path class="st0" d="M148.5,58.4h-5.8l-1.3,2.8h-0.8l4.6-10h0.7l4.6,10h-0.8L148.5,58.4z M148.3,57.8l-2.6-5.8l-2.6,5.8L148.3,57.8
		z"/>
	<path class="st0" d="M157.1,56.2c0-2.8,2.2-5,4.9-5.1c0.1,0,0.2,0,0.2,0c1.3-0.1,2.6,0.4,3.6,1.4l-0.4,0.5
		c-0.8-0.8-1.9-1.2-3.1-1.2c-2.4,0-4.4,2-4.4,4.4c0,2.4,2,4.4,4.4,4.4c0,0,0,0,0,0c1.1,0,2.3-0.4,3.1-1.2l0.4,0.5
		c-0.9,0.9-2.2,1.4-3.6,1.4c-2.8,0.1-5.1-2.1-5.2-4.8C157.1,56.4,157.1,56.3,157.1,56.2z"/>
	<path class="st0" d="M176.9,57.8v3.4h-0.7v-3.4l-4-6.5h0.8l3.6,5.9l3.6-5.9h0.8L176.9,57.8z"/>
	<g id="Group_107">
		<path id="Path_2141" class="st0" d="M44,26.2c0,8.6-6.1,14.5-14.2,14.5c-4.5,0.2-8.7-2.1-11-5.9v3.8c0,1-0.9,1.9-1.9,1.9
			c0,0,0,0,0,0l0,0c-1,0-1.8-0.8-1.8-1.8c0,0,0,0,0,0V2.3c0-1,0.9-1.9,1.9-1.9l0,0l0,0c1,0,1.9,0.9,1.9,1.9l0,0v15.2
			c2.4-3.6,6.5-5.7,10.8-5.6C37.9,11.7,44,17.6,44,26.2 M40.1,26.2c0-6.7-4.6-11.1-10.6-11.1s-10.6,4.4-10.6,11.1
			s4.5,11.1,10.6,11.1S40.1,32.8,40.1,26.2"/>
		<path id="Path_2142" class="st0" d="M47.9,32.3V1.8c0-1,0.8-1.8,1.8-1.8c0,0,0,0,0,0H50c1,0,1.8,0.8,1.8,1.8c0,0,0,0,0,0l0,0v30.1
			c0,3.4,1.6,5.2,4.8,5.2c0.3,0,0.7,0,1-0.1c0.8-0.1,1.6,0.5,1.7,1.3v0.1c0.1,0.8-0.5,1.6-1.3,1.8c-0.7,0.1-1.3,0.2-2,0.2
			C50.7,40.5,47.9,37.4,47.9,32.3"/>
		<path id="Path_2143" class="st0" d="M180.8,37.2c0.4,0.7,0.1,1.7-0.6,2.1c-1.5,0.8-3.1,1.1-4.8,1.1c-5.4,0-8.3-3-8.3-8.3V9.2H162
			V6h5.1V1.9c0-1,0.9-1.9,1.9-1.9c1,0,1.9,0.9,1.9,1.9V6h7.1c0.9,0,1.6,0.7,1.6,1.6c0,0,0,0,0,0c0,0.9-0.8,1.7-1.7,1.7h-7V32
			c0,3.4,1.7,5.2,4.9,5.2c1,0,2.1-0.2,3-0.7C179.5,36.2,180.4,36.5,180.8,37.2"/>
		<path id="Path_2144" class="st0" d="M104.4,37.3c0.3,0.7,0.1,1.5-0.6,1.9c-1.5,0.8-3.2,1.2-4.9,1.2c-5.4,0-8.3-3-8.3-8.3V9.2h-3.7
			c-0.8,0-1.4-0.6-1.4-1.3c0,0,0,0,0-0.1c0-1,0.8-1.8,1.8-1.8c0,0,0,0,0,0h3.2V1.8c0-1,0.8-1.8,1.8-1.8c0,0,0,0,0,0h0.1
			c1,0,1.9,0.9,1.9,1.9c0,0,0,0,0,0l0,0V6h83.4c0.9,0,1.6,0.7,1.6,1.6c0,0,0,0,0,0l0,0c0,0.9-0.7,1.7-1.7,1.7c0,0,0,0,0,0H94.2V32
			c0,3.4,1.7,5.2,4.9,5.2c1,0,2-0.2,2.9-0.6C102.9,36.1,103.9,36.5,104.4,37.3"/>
		<path id="Path_2145" class="st0" d="M162.4,13.8v24.6c0,1-0.8,1.8-1.8,1.8c0,0,0,0,0,0l0,0c-1,0-1.9-0.9-1.9-1.9l0,0v-3.2l0,0
			c-2,3.4-5.7,5.4-10.2,5.4c-7.3,0-12-4.1-12-12.2V13.7c0-1,0.9-1.9,1.9-1.9l0,0c1,0.1,1.8,0.9,1.9,1.9v14.2c0,6.1,3.1,9.1,8.5,9.1
			c6,0,9.7-3.8,9.7-10.3V13.6c0-1,0.8-1.8,1.8-1.8c0,0,0,0,0,0l0,0c1.1-0.1,2,0.7,2.1,1.7C162.4,13.6,162.4,13.7,162.4,13.8"/>
		<path class="st0" d="M117.9,41c-7.9,0-14.2-6.4-14.2-14.3c0-7.9,6.4-14.2,14.3-14.2c7.9,0,14.2,6.3,14.2,14.2
			C132.2,34.6,125.8,41,117.9,41C117.9,41,117.9,41,117.9,41z M117.9,16c-5.9,0-10.7,4.8-10.7,10.8s4.8,10.7,10.8,10.7
			c5.9,0,10.7-4.8,10.7-10.8c0,0,0,0,0,0C128.6,20.8,123.8,16,117.9,16z"/>
		<g id="Group_104-2">
			<g>
				<defs>
					<path id="SVGID_1_" d="M7.5,12.9v25.5c0,1,0.8,1.8,1.8,1.8c0,0,0.1,0,0.1,0c1,0,1.8-0.8,1.8-1.8c0,0,0,0,0,0V12.9
						c0-1-0.8-1.8-1.8-1.8c0,0-0.1,0-0.1,0C8.3,11.1,7.5,11.9,7.5,12.9C7.5,12.9,7.5,12.9,7.5,12.9"/>
				</defs>
				<use xlink:href="#SVGID_1_"  style="overflow:visible;fill:#FFFFFF;"/>
				<clipPath id="SVGID_2_">
					<use xlink:href="#SVGID_1_"  style="overflow:visible;"/>
				</clipPath>
				<g class="st1">
					<g id="Group_80">
						<rect id="Rectangle_707" x="7.5" y="11" class="st0" width="3.8" height="29.3"/>
					</g>
				</g>
			</g>
		</g>
		<g id="Group_105">
			<g>
				<defs>
					<path id="SVGID_3_" d="M0,22.3v16.3c0,1,0.8,1.8,1.8,1.8c0,0,0.1,0,0.1,0c1,0,1.8-0.8,1.8-1.8c0,0,0,0,0,0V22.3
						c0-1-0.8-1.9-1.8-1.9c-1,0-1.9,0.8-1.9,1.8C0,22.2,0,22.2,0,22.3L0,22.3"/>
				</defs>
				<use xlink:href="#SVGID_3_"  style="overflow:visible;fill:#FFFFFF;"/>
				<clipPath id="SVGID_4_">
					<use xlink:href="#SVGID_3_"  style="overflow:visible;"/>
				</clipPath>
				<g class="st2">
					<g id="Group_82">
						<rect id="Rectangle_708" y="20.4" class="st0" width="3.8" height="20.1"/>
					</g>
				</g>
			</g>
		</g>
		
			<linearGradient id="Subtraction_3-2_1_" gradientUnits="userSpaceOnUse" x1="-2839.8599" y1="-486.1064" x2="-2839.8599" y2="-487.0164" gradientTransform="matrix(28.03 0 0 -28.03 79672.8047 -13611.6592)">
			<stop  offset="0" style="stop-color:#E05B17"/>
			<stop  offset="1" style="stop-color:#FFC845"/>
		</linearGradient>
		<path id="Subtraction_3-2" class="st3" d="M71.5,40.7c-7.7,0-14-6.3-14-14c0-7.7,6.3-14,14-14c3.8,0,7.4,1.5,10,4.2
			c5.4,5.5,5.4,14.3,0,19.8C78.8,39.3,75.2,40.7,71.5,40.7z M72.9,14.3c-6.9,0-12.5,5.6-12.5,12.5S66,39.3,72.9,39.3
			s12.5-5.6,12.5-12.5v0C85.3,19.9,79.8,14.4,72.9,14.3z"/>
	</g>
</g>
</svg>
